<svg id="Layer_1" data-name="Layer 1" xmlns="http://www.w3.org/2000/svg" viewBox="0 0 582.35 158.97"><defs><style>.cls-1{fill:#fff;}</style></defs><path class="cls-1" d="M33,144.7,32,147a25.89,25.89,0,0,1-5.7,2.13,26.41,26.41,0,0,1-6.08.66,25.33,25.33,0,0,1-7.18-1,18.92,18.92,0,0,1-5.8-2.78,17.67,17.67,0,0,1-4-4.05,17.94,17.94,0,0,1-2.39-4.87A19.25,19.25,0,0,1,0,131.37,17.34,17.34,0,0,1,5.54,118.2Q11.09,113,20.69,113a30.22,30.22,0,0,1,4.19.27,38.68,38.68,0,0,1,4.71,1c1.86.49,3,.78,3.41.86a16.51,16.51,0,0,0-.83,2.69,39.14,39.14,0,0,0-.54,4.91H30.06l0-2.94a4.42,4.42,0,0,0-2.7-3.64,17.12,17.12,0,0,0-7.19-1.19,19,19,0,0,0-6,.91,11.65,11.65,0,0,0-4.35,2.71,14.42,14.42,0,0,0-3.08,4.71,19.2,19.2,0,0,0-1.22,7.17q0,7.54,4.61,12.15t12.19,4.6a20.39,20.39,0,0,0,6.33-.95,14.65,14.65,0,0,0,4-2Z"/><path class="cls-1" d="M36.11,137.65A12.13,12.13,0,0,1,48.77,125,11.28,11.28,0,0,1,60.59,136.8a13.32,13.32,0,0,1-1.7,6.65,12.08,12.08,0,0,1-4.78,4.73,13.93,13.93,0,0,1-6.81,1.7,11.15,11.15,0,0,1-4.9-1,9.85,9.85,0,0,1-3.25-2.44,11.63,11.63,0,0,1-1.89-3A14.65,14.65,0,0,1,36.11,137.65Zm4.71-1.85a20.2,20.2,0,0,0,1,6.23,9.18,9.18,0,0,0,3,4.63,6.8,6.8,0,0,0,4.2,1.45,6.07,6.07,0,0,0,4.83-2.29q2-2.3,2-7a18.34,18.34,0,0,0-1.16-6.84,8.43,8.43,0,0,0-3-4.06,7,7,0,0,0-4-1.19,6.24,6.24,0,0,0-5,2.22Q40.83,131.12,40.82,135.8Z"/><path class="cls-1" d="M63.33,149.11v-1.39l2.36,0a1.85,1.85,0,0,0,.81-.19,1,1,0,0,0,.44-.41,4.6,4.6,0,0,0,.35-1.77c0-.22,0-2.6.15-7.16v-3c0-1.33,0-2.76-.08-4.29a5.74,5.74,0,0,0-.23-1.75,1,1,0,0,0-.56-.41,18.32,18.32,0,0,0-3.24-.11v-1.42a26.6,26.6,0,0,0,7.33-1.82,1.86,1.86,0,0,1,.67-.25.33.33,0,0,1,.27.12.56.56,0,0,1,.1.37c0,.12,0,.25,0,.4q-.11,1.2-.15,3.57l3.27-3a5.72,5.72,0,0,1,.77-.63,7.07,7.07,0,0,1,1.65-.59,8.65,8.65,0,0,1,2.24-.28,7.89,7.89,0,0,1,4.27,1.17,7.41,7.41,0,0,1,2.87,3.47l2.75-2.55a8.57,8.57,0,0,1,1.27-1,8,8,0,0,1,1.84-.7,8.89,8.89,0,0,1,2.37-.32,7.45,7.45,0,0,1,4.76,1.51,6.75,6.75,0,0,1,2.47,3.43,26.68,26.68,0,0,1,.34,5.49v2.59l.08,3.47c0,2,.07,3.19.07,3.54a5.78,5.78,0,0,0,.3,1.82,1,1,0,0,0,.32.39,1.66,1.66,0,0,0,.61.26c.1,0,1,0,2.74.08v1.39q-3.15-.15-4.29-.15t-4.41.15l.22-6.88.08-2.69V137.4a24.74,24.74,0,0,0-.43-5.72,4.34,4.34,0,0,0-1.78-2.48,5.36,5.36,0,0,0-3.15-.95,6.25,6.25,0,0,0-3.74,1.2,4.3,4.3,0,0,0-1.64,2.17,18.87,18.87,0,0,0-.4,4.87v1.67l.07,3.47c0,2,.06,3.19.08,3.54a5.25,5.25,0,0,0,.3,1.82.94.94,0,0,0,.3.39,1.55,1.55,0,0,0,.59.26c.12,0,1,0,2.77.08v1.39q-3.66-.2-5.88-.2c-1.2,0-3.37.07-6.53.2v-1.39l2.37,0a1.92,1.92,0,0,0,.83-.19,1.09,1.09,0,0,0,.44-.41,4.36,4.36,0,0,0,.32-1.77c0-.22.07-2.6.15-7.16v-1.95a16.13,16.13,0,0,0-.5-4.7,4.59,4.59,0,0,0-1.75-2.37,5,5,0,0,0-3-.89,6.45,6.45,0,0,0-2.84.64,5.46,5.46,0,0,0-2.06,1.58,4.3,4.3,0,0,0-.87,2,28.94,28.94,0,0,0-.25,4.15v1.52q.15,6.48.15,7A5.25,5.25,0,0,0,72,147a1,1,0,0,0,.29.39,1.63,1.63,0,0,0,.63.26c.1,0,1,0,2.74.08v1.39q-3.44-.2-5.85-.2Q67.66,148.91,63.33,149.11Z"/><path class="cls-1" d="M108.39,149.11v-1.39l2.36,0a1.85,1.85,0,0,0,.81-.19,1.09,1.09,0,0,0,.44-.41,4.6,4.6,0,0,0,.35-1.77c0-.22.05-2.6.15-7.16v-3c0-1.33,0-2.76-.08-4.29a6.1,6.1,0,0,0-.23-1.75,1,1,0,0,0-.56-.41,18.32,18.32,0,0,0-3.24-.11v-1.42a26.6,26.6,0,0,0,7.33-1.82,1.86,1.86,0,0,1,.67-.25.34.34,0,0,1,.27.12.56.56,0,0,1,.1.37,3,3,0,0,1,0,.4c-.06.8-.11,2-.14,3.57l3.27-3a5.72,5.72,0,0,1,.77-.63,7.07,7.07,0,0,1,1.65-.59,8.65,8.65,0,0,1,2.24-.28,7.89,7.89,0,0,1,4.27,1.17,7.41,7.41,0,0,1,2.87,3.47l2.74-2.55a9,9,0,0,1,1.28-1,8,8,0,0,1,1.84-.7,8.89,8.89,0,0,1,2.37-.32,7.45,7.45,0,0,1,4.76,1.51,6.75,6.75,0,0,1,2.47,3.43,26.68,26.68,0,0,1,.34,5.49v2.59l.08,3.47c.05,2,.07,3.19.07,3.54a5.78,5.78,0,0,0,.3,1.82,1.05,1.05,0,0,0,.31.39,1.83,1.83,0,0,0,.61.26c.1,0,1,0,2.75.08v1.39q-3.15-.15-4.29-.15t-4.41.15l.22-6.88.08-2.69V137.4a24.74,24.74,0,0,0-.43-5.72A4.34,4.34,0,0,0,141,129.2a5.36,5.36,0,0,0-3.15-.95,6.25,6.25,0,0,0-3.74,1.2,4.3,4.3,0,0,0-1.64,2.17,18.87,18.87,0,0,0-.4,4.87v1.67l.07,3.47c0,2,.06,3.19.08,3.54a5.25,5.25,0,0,0,.3,1.82,1,1,0,0,0,.29.39,1.68,1.68,0,0,0,.6.26c.12,0,1,0,2.77.08v1.39q-3.66-.2-5.88-.2-1.8,0-6.53.2v-1.39l2.37,0a1.92,1.92,0,0,0,.83-.19,1.09,1.09,0,0,0,.44-.41,4.36,4.36,0,0,0,.32-1.77c0-.22.07-2.6.15-7.16v-1.95a16.13,16.13,0,0,0-.5-4.7,4.64,4.64,0,0,0-1.75-2.37,5,5,0,0,0-3-.89,6.44,6.44,0,0,0-2.83.64,5.46,5.46,0,0,0-2.06,1.58,4.32,4.32,0,0,0-.88,2,30.65,30.65,0,0,0-.24,4.15v1.52c.1,4.32.14,6.66.14,7A5.78,5.78,0,0,0,117,147a1.14,1.14,0,0,0,.3.39,1.63,1.63,0,0,0,.63.26c.1,0,1,0,2.74.08v1.39c-2.3-.13-4.24-.2-5.85-.2Q112.72,148.91,108.39,149.11Z"/><path class="cls-1" d="M154.09,137.65A12.13,12.13,0,0,1,166.75,125a11.28,11.28,0,0,1,11.82,11.79,13.32,13.32,0,0,1-1.7,6.65,12.08,12.08,0,0,1-4.78,4.73,13.93,13.93,0,0,1-6.81,1.7,11.1,11.1,0,0,1-4.89-1,9.79,9.79,0,0,1-3.26-2.44,11.63,11.63,0,0,1-1.89-3A14.82,14.82,0,0,1,154.09,137.65Zm4.71-1.85a19.93,19.93,0,0,0,1,6.23,9.1,9.1,0,0,0,2.95,4.63,6.84,6.84,0,0,0,4.2,1.45,6.06,6.06,0,0,0,4.83-2.29q2-2.3,1.95-7a18.34,18.34,0,0,0-1.16-6.84,8.37,8.37,0,0,0-3-4.06,7,7,0,0,0-4-1.19,6.24,6.24,0,0,0-5,2.22Q158.81,131.12,158.8,135.8Z"/><path class="cls-1" d="M181,149.11v-1.39l2.37,0a1.85,1.85,0,0,0,.81-.19,1.06,1.06,0,0,0,.43-.41,4.42,4.42,0,0,0,.35-1.77c0-.22.05-2.6.15-7.16v-3c0-1.33,0-2.76-.07-4.29a5.48,5.48,0,0,0-.24-1.75,1,1,0,0,0-.56-.41,18.32,18.32,0,0,0-3.24-.11V127.2a26.31,26.31,0,0,0,7.33-1.81,1.86,1.86,0,0,1,.67-.25.32.32,0,0,1,.27.12.56.56,0,0,1,.1.37c0,.12,0,.25,0,.4-.05.6-.1,1.86-.15,3.79l4.64-4a11.27,11.27,0,0,1,3.87-.75,9.28,9.28,0,0,1,3.83.82,6.65,6.65,0,0,1,2.72,2.08,7.11,7.11,0,0,1,1.21,3.14,59.74,59.74,0,0,1,.18,6.26v4.42a37.67,37.67,0,0,0,.17,4.41,2,2,0,0,0,.39,1,1.28,1.28,0,0,0,.81.36l2.66.08v1.39c-1.62-.12-3-.17-4.06-.17s-2.47.05-4.63.17q.35-6.15.35-7.77v-4.19A27.19,27.19,0,0,0,201,132a4.57,4.57,0,0,0-1.93-2.69,6.27,6.27,0,0,0-3.62-1,6.76,6.76,0,0,0-3.42.89,5.73,5.73,0,0,0-2.21,2,8.45,8.45,0,0,0-.66,3.91v3q.15,6.48.15,7a5.25,5.25,0,0,0,.3,1.82.94.94,0,0,0,.3.39,1.58,1.58,0,0,0,.62.26c.1,0,1,0,2.74.08v1.39c-2-.12-3.86-.17-5.5-.17C186.38,148.94,184.11,149,181,149.11Z"/><path class="cls-1" d="M224.35,147.89a59,59,0,0,0,.47-7.75h1.7a18.47,18.47,0,0,0,.41,4.3,3.74,3.74,0,0,0,1.38,1.41,11.29,11.29,0,0,0,2.94,1.33,11.8,11.8,0,0,0,3.57.59,9.53,9.53,0,0,0,4.63-1.16,7.37,7.37,0,0,0,3.09-3,8.65,8.65,0,0,0,1-4,7.6,7.6,0,0,0-.48-2.84,4.41,4.41,0,0,0-1.49-1.93,6.13,6.13,0,0,0-2.46-1c-.62-.1-1.85-.26-3.69-.49s-3.42-.49-4.71-.78a10.36,10.36,0,0,1-3.81-1.87,7.79,7.79,0,0,1-2-2.81,9.44,9.44,0,0,1-.76-3.77,10.77,10.77,0,0,1,1.54-5.54,10.19,10.19,0,0,1,4.53-4,14.9,14.9,0,0,1,6.52-1.45,22.29,22.29,0,0,1,9.3,2.22,26.09,26.09,0,0,0-.5,2.93c-.1.91-.18,2.24-.23,4h-1.69a27.52,27.52,0,0,0-.23-4.19,6.57,6.57,0,0,0-1.69-1.62,10.81,10.81,0,0,0-5.36-1.44,7.7,7.7,0,0,0-5.77,2.2,7.83,7.83,0,0,0-2.15,5.72,5.81,5.81,0,0,0,.77,3.27,5.33,5.33,0,0,0,2.76,1.86,25.74,25.74,0,0,0,4.49.88c2.08.28,4,.57,5.61.89a9.53,9.53,0,0,1,3.46,1.65,7.37,7.37,0,0,1,1.85,2.52,8.61,8.61,0,0,1,.72,3.65,11.28,11.28,0,0,1-4.11,8.64,15.32,15.32,0,0,1-10.64,3.68A20.19,20.19,0,0,1,224.35,147.89Z"/><path class="cls-1" d="M271.53,145.25l-.8,1.79a21.85,21.85,0,0,1-2.52,1.42,15,15,0,0,1-2.68.89,13.59,13.59,0,0,1-3.18.36,12.87,12.87,0,0,1-6-1.37,9.61,9.61,0,0,1-4.13-4.1,13.17,13.17,0,0,1-1.48-6.39,15.77,15.77,0,0,1,.79-5.17,9.66,9.66,0,0,1,1.78-3.41,13,13,0,0,1,2.24-1.83,15.71,15.71,0,0,1,3-1.63,10.89,10.89,0,0,1,4.26-.82,10,10,0,0,1,5,1.27,7.73,7.73,0,0,1,3.31,3.46,11.49,11.49,0,0,1,1,5,16.51,16.51,0,0,1-.1,1.7,25.83,25.83,0,0,1-3.22.44c-1.79.14-3.59.2-5.39.2h-8a12.63,12.63,0,0,0,1.23,5.77,7.51,7.51,0,0,0,3.27,3.26,9.61,9.61,0,0,0,4.32,1,9.89,9.89,0,0,0,3-.48,19.89,19.89,0,0,0,3.73-1.79Zm-16-10.22c.47.05,1.35.1,2.65.15,2.48.08,4.19.12,5.12.12,2.21,0,3.67,0,4.37-.12,0-.4,0-.7,0-.92q0-3.93-1.6-5.77a5.37,5.37,0,0,0-4.27-1.83,5.69,5.69,0,0,0-4.54,2Q255.57,130.68,255.55,135Z"/><path class="cls-1" d="M274.67,149.11v-1.39l2.36,0a1.85,1.85,0,0,0,.81-.19,1,1,0,0,0,.44-.41,4.6,4.6,0,0,0,.35-1.77c0-.22.05-2.6.15-7.16v-3c0-1.33,0-2.76-.08-4.29a5.61,5.61,0,0,0-.23-1.75,1,1,0,0,0-.56-.41,18.32,18.32,0,0,0-3.24-.11V127.2a26.31,26.31,0,0,0,7.33-1.81,1.86,1.86,0,0,1,.67-.25.34.34,0,0,1,.27.12.56.56,0,0,1,.1.37c0,.12,0,.25,0,.4,0,.6-.1,1.86-.15,3.79l4.64-4a11.22,11.22,0,0,1,3.87-.75,9.28,9.28,0,0,1,3.83.82,6.65,6.65,0,0,1,2.72,2.08,7.11,7.11,0,0,1,1.21,3.14,61,61,0,0,1,.17,6.26v4.42a34.89,34.89,0,0,0,.18,4.41,2,2,0,0,0,.39,1,1.28,1.28,0,0,0,.81.36l2.66.08v1.39c-1.63-.12-3-.17-4.06-.17s-2.48.05-4.64.17c.24-4.1.35-6.69.35-7.77v-4.19a27.19,27.19,0,0,0-.3-5.14,4.51,4.51,0,0,0-1.92-2.69,6.29,6.29,0,0,0-3.62-1,6.76,6.76,0,0,0-3.42.89,5.73,5.73,0,0,0-2.21,2,8.45,8.45,0,0,0-.66,3.91v3q.15,6.48.15,7a5.55,5.55,0,0,0,.29,1.82,1.14,1.14,0,0,0,.3.39,1.63,1.63,0,0,0,.63.26c.1,0,1,0,2.74.08v1.39c-2-.12-3.86-.17-5.5-.17C280.09,148.94,277.82,149,274.67,149.11Z"/><path class="cls-1" d="M306,141.58h1.5a20.29,20.29,0,0,0,.15,2.3,8.25,8.25,0,0,0,.42,1.66,3.49,3.49,0,0,0,.92,1.37,5.07,5.07,0,0,0,1.36.87,5.77,5.77,0,0,0,1.5.41,18.46,18.46,0,0,0,2.3.1,6.34,6.34,0,0,0,4.18-1.35,4.5,4.5,0,0,0,1.63-3.69,3.35,3.35,0,0,0-.51-1.84,3.42,3.42,0,0,0-1.47-1.25,26.39,26.39,0,0,0-4.13-1.17c-2.11-.48-3.47-.83-4.08-1a7,7,0,0,1-2.22-1.27,5.24,5.24,0,0,1-1.31-1.9,6.36,6.36,0,0,1-.49-2.49,6.75,6.75,0,0,1,1-3.63A7.37,7.37,0,0,1,310,126a11.3,11.3,0,0,1,4.84-1,17.9,17.9,0,0,1,3.63.43,14.34,14.34,0,0,1,3.37,1.09c-.12,1.84-.2,3.72-.25,5.63H320.2a13.94,13.94,0,0,0-.29-2.39,4,4,0,0,0-.43-1,3.86,3.86,0,0,0-1-1,6.81,6.81,0,0,0-1.73-.91,7.38,7.38,0,0,0-2.61-.4,4.85,4.85,0,0,0-3.52,1.29,4.12,4.12,0,0,0-1.34,3,3.35,3.35,0,0,0,.39,1.67,3.23,3.23,0,0,0,1,1.14,6.87,6.87,0,0,0,1.82.78l4.14,1a27.23,27.23,0,0,1,4.32,1.37,4.5,4.5,0,0,1,1.91,1.79,5.55,5.55,0,0,1,.72,2.9,7.66,7.66,0,0,1-2.78,5.87,10.67,10.67,0,0,1-7.43,2.5,33.61,33.61,0,0,1-5.71-.64,8.94,8.94,0,0,1-2.12-.53.28.28,0,0,1-.1-.25,2.6,2.6,0,0,1,.05-.42,15.7,15.7,0,0,0,.3-2.09C305.92,145.17,306,143.74,306,141.58Z"/><path class="cls-1" d="M347.31,145.25l-.79,1.79a21.85,21.85,0,0,1-2.52,1.42,15,15,0,0,1-2.68.89,13.65,13.65,0,0,1-3.18.36,12.87,12.87,0,0,1-5.95-1.37,9.69,9.69,0,0,1-4.14-4.1,13.28,13.28,0,0,1-1.47-6.39,16,16,0,0,1,.78-5.17,9.82,9.82,0,0,1,1.79-3.41,13,13,0,0,1,2.24-1.83,15.94,15.94,0,0,1,3-1.63,11,11,0,0,1,4.27-.82,10,10,0,0,1,5,1.27,7.73,7.73,0,0,1,3.31,3.46,11.49,11.49,0,0,1,1,5,16.51,16.51,0,0,1-.1,1.7,26.08,26.08,0,0,1-3.22.44c-1.79.14-3.59.2-5.39.2h-8a12.51,12.51,0,0,0,1.23,5.77,7.51,7.51,0,0,0,3.27,3.26,9.58,9.58,0,0,0,4.32,1,10,10,0,0,0,3-.48,20.19,20.19,0,0,0,3.73-1.79Zm-16-10.22c.47.05,1.35.1,2.65.15,2.48.08,4.18.12,5.12.12,2.21,0,3.67,0,4.37-.12,0-.4,0-.7,0-.92q0-3.93-1.6-5.77a5.38,5.38,0,0,0-4.27-1.83,5.69,5.69,0,0,0-4.54,2Q331.37,130.68,331.34,135Z"/><path class="cls-1" d="M414.54,139.54a9.58,9.58,0,0,1-3.84,7.89q-3.84,3-10.42,3a27.15,27.15,0,0,1-6.64-.72,32.37,32.37,0,0,1-5.3-1.82v-7.88h.86a18.07,18.07,0,0,0,5.49,3.22,16.76,16.76,0,0,0,5.83,1.13,17.45,17.45,0,0,0,1.9-.14,6.65,6.65,0,0,0,1.91-.44,4.51,4.51,0,0,0,1.49-1,2.4,2.4,0,0,0,.59-1.77,2.43,2.43,0,0,0-.85-1.86,5.73,5.73,0,0,0-2.5-1.21c-1.16-.29-2.37-.57-3.66-.83a25.36,25.36,0,0,1-3.61-1,11.31,11.31,0,0,1-5.57-3.65,9.42,9.42,0,0,1-1.69-5.73,9,9,0,0,1,3.83-7.5,15.89,15.89,0,0,1,9.87-2.91,28.58,28.58,0,0,1,6,.63,26.78,26.78,0,0,1,5.12,1.58v7.58h-.85a15.85,15.85,0,0,0-4.54-2.66,14.53,14.53,0,0,0-5.48-1.07,13.05,13.05,0,0,0-2,.14,6.86,6.86,0,0,0-1.88.54,3.77,3.77,0,0,0-1.38,1,2.51,2.51,0,0,0,.35,3.54,9.93,9.93,0,0,0,3.5,1.27l3.24.73a31.54,31.54,0,0,1,3.35,1,11.08,11.08,0,0,1,5.19,3.37A8.66,8.66,0,0,1,414.54,139.54Z"/><path class="cls-1" d="M429.71,141.1l5.28-16h7.62L429.77,159h-8l3.68-9.29-9-24.61h7.78Z"/><path class="cls-1" d="M466.56,142a7.34,7.34,0,0,1-3.21,6.2c-2.14,1.56-5.07,2.35-8.79,2.35a23.59,23.59,0,0,1-5.6-.62,20.12,20.12,0,0,1-4-1.37V142h.68c.37.28.8.59,1.28.92A12.83,12.83,0,0,0,449,144a15.77,15.77,0,0,0,2.62.87,12.47,12.47,0,0,0,3.12.37,7.6,7.6,0,0,0,3.24-.52A1.66,1.66,0,0,0,459,143.2a1.46,1.46,0,0,0-.62-1.31,7.8,7.8,0,0,0-2.35-.78c-.55-.14-1.29-.28-2.23-.43a23.44,23.44,0,0,1-2.56-.57,9,9,0,0,1-4.68-2.75,7.45,7.45,0,0,1,1.64-10.6c2.11-1.58,5-2.37,8.63-2.37a21.91,21.91,0,0,1,5,.56,19.17,19.17,0,0,1,3.71,1.21v6.27h-.64a14.86,14.86,0,0,0-3.75-2,12.45,12.45,0,0,0-4.27-.76,7.67,7.67,0,0,0-3,.53q-1.23.53-1.23,1.5a1.66,1.66,0,0,0,.56,1.35,7.2,7.2,0,0,0,2.61.93c.76.16,1.57.32,2.44.47s1.75.35,2.63.59a8.07,8.07,0,0,1,4.32,2.57A6.82,6.82,0,0,1,466.56,142Z"/><path class="cls-1" d="M486,149.66a18.86,18.86,0,0,1-2.53.51,23.22,23.22,0,0,1-3.27.19c-2.88,0-5-.63-6.43-1.88s-2.11-3.39-2.11-6.42v-11.6h-3.05v-5.39h3.05V118h7.43v7.09H486v5.39h-6.91v8.81c0,.87,0,1.62,0,2.27a4.83,4.83,0,0,0,.33,1.75,2.39,2.39,0,0,0,1,1.23,4.12,4.12,0,0,0,2.13.45,7.85,7.85,0,0,0,2.81-.75H486Z"/><path class="cls-1" d="M512.94,138.94H496a5.85,5.85,0,0,0,2.07,4.46,8.74,8.74,0,0,0,5.61,1.55,11.68,11.68,0,0,0,4.54-.91,13.86,13.86,0,0,0,3.48-1.94h.83v6.38a26.23,26.23,0,0,1-4.74,1.57,23.3,23.3,0,0,1-4.92.49q-6.94,0-10.66-3.36t-3.7-9.56q0-6.15,3.51-9.73t9.62-3.59c3.76,0,6.58,1,8.48,3.06s2.84,5,2.84,8.8Zm-7.37-4.66a5.8,5.8,0,0,0-1.15-3.75,4.26,4.26,0,0,0-3.4-1.26,5.21,5.21,0,0,0-3.52,1.19,5.27,5.27,0,0,0-1.54,3.82Z"/><path class="cls-1" d="M540.49,132.29v17.58h-7.43V137.48c0-1.2,0-2.23-.08-3.08a5.87,5.87,0,0,0-.46-2.06,2.3,2.3,0,0,0-1.12-1.16,5.6,5.6,0,0,0-4.23.11,16.71,16.71,0,0,0-1.85,1v17.58h-7.43v-24.8h7.43v2.74a21.16,21.16,0,0,1,3.66-2.52,8.33,8.33,0,0,1,3.87-.9,7.38,7.38,0,0,1,4,1.09,7.28,7.28,0,0,1,2.74,3.22,23,23,0,0,1,4.31-3.16,8.49,8.49,0,0,1,4.11-1.15,6.87,6.87,0,0,1,5.69,2.41q1.93,2.4,1.94,6.93v16.14h-7.43V137.48c0-1.22,0-2.25-.07-3.09a5.61,5.61,0,0,0-.45-2,2.21,2.21,0,0,0-1.11-1.16,5.1,5.1,0,0,0-2.14-.36,5,5,0,0,0-1.81.34A13.48,13.48,0,0,0,540.49,132.29Z"/><path class="cls-1" d="M582.35,142a7.34,7.34,0,0,1-3.21,6.2c-2.14,1.56-5.07,2.35-8.79,2.35a23.53,23.53,0,0,1-5.6-.62,20.12,20.12,0,0,1-4-1.37V142h.68c.37.28.79.59,1.28.92a12.83,12.83,0,0,0,2.07,1.07,16,16,0,0,0,2.61.87,12.61,12.61,0,0,0,3.13.37,7.55,7.55,0,0,0,3.23-.52,1.66,1.66,0,0,0,1-1.54,1.45,1.45,0,0,0-.61-1.31,7.91,7.91,0,0,0-2.35-.78c-.55-.14-1.29-.28-2.23-.43a24.19,24.19,0,0,1-2.57-.57,9,9,0,0,1-4.67-2.75,7.45,7.45,0,0,1,1.64-10.6q3.15-2.37,8.63-2.37a21.75,21.75,0,0,1,5,.56,19.07,19.07,0,0,1,3.72,1.21v6.27h-.64a14.75,14.75,0,0,0-3.76-2,12.41,12.41,0,0,0-4.27-.76,7.62,7.62,0,0,0-3,.53q-1.23.53-1.23,1.5a1.66,1.66,0,0,0,.56,1.35,7.2,7.2,0,0,0,2.61.93c.76.16,1.57.32,2.44.47s1.75.35,2.63.59a8.11,8.11,0,0,1,4.32,2.57A6.82,6.82,0,0,1,582.35,142Z"/><path class="cls-1" d="M435.31,14.79a226,226,0,0,0-28.5,33.73c-10-9.12-53.48-46.66-76-35.36-20.41,10.25,3.06,57.89,3.06,57.89S351.76,107,368,126.36l.06.07.71.86.7-1.27C374.58,117.71,430.32,27,445,27c19.3,0-9.57,69-9.57,69l.8.53S452,70.69,459.14,53.43c2.17-5.24,9.3-21.45,10.29-35C470.58,2.57,463-11.84,435.31,14.79ZM368.81,125c-5.38-12.65-29.8-70.08-20.69-84.84,6.38-10.34,41.69,8.76,53.76,15.7A301.73,301.73,0,0,0,368.81,125Z"/><path class="cls-1" d="M468.31,6.92c-.08-.2-.15-.41-.23-.61a12.71,12.71,0,0,0-1.59-2.94l-.36-.45-.19-.22c-.06-.06-.12-.14-.19-.2A8,8,0,0,0,459.7,0a13,13,0,0,0-2.85.34c-.29.06-.58.14-.89.23a31.25,31.25,0,0,0-8.65,4.27c-.54.36-1.08.75-1.65,1.15a95.67,95.67,0,0,0-10.35,8.8,226,226,0,0,0-28.5,33.73c-8.75-7.94-42.84-37.46-66.35-37.46a21.13,21.13,0,0,0-9.62,2.1c-20.41,10.25,3.06,57.89,3.06,57.89S351.76,107,368,126.36l.07.07.7.86.7-1.27.13-.21.14-.24,0,0,.29-.48.45-.73c.14-.23.3-.5.48-.78.5-.82,1.12-1.82,1.84-3,11.29-18.22,47.5-75.48,65.42-90.15A23,23,0,0,1,441.77,28a4.78,4.78,0,0,1,.45-.23,7.91,7.91,0,0,1,1.66-.64,2.87,2.87,0,0,1,.38-.08l.35-.05.34,0h0a5.44,5.44,0,0,1,4.46,2,4.85,4.85,0,0,1,.46.63,11.42,11.42,0,0,1,1.44,4.26c0,.34.1.69.13,1C453.35,53,435.4,96,435.4,96l.8.53S452,70.69,459.14,53.43c2.17-5.24,9.31-21.46,10.29-35A30,30,0,0,0,468.31,6.92ZM335.69,70.16a143.85,143.85,0,0,1-9.05-24.75c-2.83-11.31-4.25-25.77,5.1-30.47a19.27,19.27,0,0,1,8.72-1.88c9.6,0,22.26,5.18,37.6,15.42A247.76,247.76,0,0,1,405.47,50l.2.18c-.92,1.33-1.81,2.66-2.69,4l-.1-.05c-9.92-5.71-34.41-19-47.62-19-4.25,0-7.22,1.33-8.84,4-6,9.69-.32,35.85,16.84,77.8C349.29,97.41,335.84,70.47,335.69,70.16ZM368.8,125c-5.37-12.65-29.78-70.08-20.68-84.84,1.31-2.13,3.84-3,7.14-3,12.76,0,37,13.2,46.62,18.71A302.42,302.42,0,0,0,368.8,125ZM467.48,17.54c0,.25,0,.5,0,.76-.9,12.28-7,26.9-9.64,33.14l-.51,1.22c-2.47,6-6,13-9.54,19.6L447,73.69h0l-1.36,2.5-1.78,3.21h0c.16-.44.31-.89.47-1.35,1.11-3.2,2.24-6.63,3.32-10.13l.48-1.58c.17-.56.33-1.12.49-1.67.42-1.41.8-2.77,1.16-4.09.17-.64.34-1.27.5-1.9.47-1.8.9-3.52,1.27-5.18q.23-1,.42-2c.33-1.59.62-3.12.85-4.57.09-.57.18-1.14.26-1.69a51.82,51.82,0,0,0,.58-8.24c0-.51,0-1-.07-1.48l-.06-.71a19,19,0,0,0-.4-2.57,12.06,12.06,0,0,0-1.61-4,8.48,8.48,0,0,0-.91-1.13A7.51,7.51,0,0,0,445,25a5.9,5.9,0,0,0-1.13.11l-.25.05-.33.08-.48.15-.21.06-.38.15c-5.41,2.2-15.93,11.6-40.19,46.69-7.12,10.3-14,20.78-19.74,29.7a1.75,1.75,0,0,0-.16.25c-1.58,2.45-3.06,4.78-4.44,7l-.2.32-1.14,1.8-.09.15-1.17,1.87v0h0l.52-1.34c.31-.78.62-1.59.95-2.42,0-.08.07-.18.11-.26.51-1.28,1.05-2.6,1.62-4q.24-.55.48-1.14c.18-.43.37-.88.57-1.33l.67-1.56q.33-.79.69-1.59,1.13-2.55,2.37-5.26l.7-1.5A303.66,303.66,0,0,1,400.17,62.3L402.24,59l1.32-2.05c1.62-2.5,3.27-4.95,4.89-7.28a224.81,224.81,0,0,1,28.24-33.43C448.9,4.47,455.94,2,459.7,2a6,6,0,0,1,4.67,2,8.66,8.66,0,0,1,1.21,1.71,10.73,10.73,0,0,1,.69,1.53c.09.22.17.45.24.68h0a13,13,0,0,1,.4,1.46h0c.07.25.12.51.17.77s.1.54.14.82A31.9,31.9,0,0,1,467.48,17.54Z"/></svg>