<svg id="Layer_1" data-name="Layer 1" xmlns="http://www.w3.org/2000/svg" viewBox="0 0 555.66 46"><defs><style>.cls-1{fill:#b6b6b6;}</style></defs><path class="cls-1" d="M33,31.73,32,34a25.89,25.89,0,0,1-5.7,2.13,26.41,26.41,0,0,1-6.08.66,25.33,25.33,0,0,1-7.18-1,18.47,18.47,0,0,1-5.8-2.78,17.29,17.29,0,0,1-4-4A17.66,17.66,0,0,1,.82,24.16,19.16,19.16,0,0,1,0,18.39,17.34,17.34,0,0,1,5.54,5.22Q11.09,0,20.69,0a31.93,31.93,0,0,1,4.19.26,41,41,0,0,1,4.71,1c1.86.49,3,.78,3.41.86a16.21,16.21,0,0,0-.83,2.69,38.93,38.93,0,0,0-.54,4.91H30.06l0-2.94a4.42,4.42,0,0,0-2.7-3.64,16.94,16.94,0,0,0-7.19-1.2,19.54,19.54,0,0,0-6,.91A11.67,11.67,0,0,0,9.78,5.57,14.42,14.42,0,0,0,6.7,10.28a19.13,19.13,0,0,0-1.22,7.17q0,7.55,4.61,12.15t12.19,4.59a20.39,20.39,0,0,0,6.33-.94,15,15,0,0,0,4-2.05Z"/><path class="cls-1" d="M36.11,24.67A12.11,12.11,0,0,1,48.77,12,11.28,11.28,0,0,1,60.59,23.83a13.35,13.35,0,0,1-1.7,6.65,12.06,12.06,0,0,1-4.78,4.72,13.83,13.83,0,0,1-6.81,1.71,11.15,11.15,0,0,1-4.9-1,9.85,9.85,0,0,1-3.25-2.44,11.63,11.63,0,0,1-1.89-3A14.69,14.69,0,0,1,36.11,24.67Zm4.71-1.84a20.25,20.25,0,0,0,1,6.23,9.1,9.1,0,0,0,3,4.62A6.81,6.81,0,0,0,49,35.14a6.07,6.07,0,0,0,4.83-2.29q2-2.3,2-7.06A18.34,18.34,0,0,0,54.62,19a8.48,8.48,0,0,0-3-4.06,7,7,0,0,0-4-1.18,6.24,6.24,0,0,0-5,2.22C41.46,17.4,40.82,19.71,40.82,22.83Z"/><path class="cls-1" d="M63.33,36.14v-1.4l2.36,0a1.85,1.85,0,0,0,.81-.19,1.17,1.17,0,0,0,.44-.41,4.65,4.65,0,0,0,.35-1.77q0-.33.15-7.16v-3c0-1.33,0-2.76-.08-4.29a5.61,5.61,0,0,0-.23-1.75,1,1,0,0,0-.56-.41,18.9,18.9,0,0,0-3.24-.12V14.23a25.89,25.89,0,0,0,7.33-1.82,2.09,2.09,0,0,1,.67-.25.31.31,0,0,1,.27.13.55.55,0,0,1,.1.37c0,.12,0,.25,0,.4-.07.8-.12,2-.15,3.56l3.27-3a6.18,6.18,0,0,1,.77-.62,6.6,6.6,0,0,1,1.65-.6,9.1,9.1,0,0,1,2.24-.27,7.89,7.89,0,0,1,4.27,1.17,7.39,7.39,0,0,1,2.87,3.46l2.75-2.54a9.66,9.66,0,0,1,1.27-1.05,7.6,7.6,0,0,1,1.84-.69,8.91,8.91,0,0,1,2.37-.33,7.51,7.51,0,0,1,4.76,1.51,6.79,6.79,0,0,1,2.47,3.43,26.82,26.82,0,0,1,.34,5.49v2.6l.08,3.46c0,2,.07,3.2.07,3.55a5.78,5.78,0,0,0,.3,1.82,1,1,0,0,0,.32.39,1.85,1.85,0,0,0,.61.26c.1,0,1,0,2.74.07v1.4q-3.15-.15-4.29-.15t-4.41.15L98,29.26l.08-2.69V24.42a24.79,24.79,0,0,0-.43-5.72,4.37,4.37,0,0,0-1.78-2.48,5.35,5.35,0,0,0-3.15-.94A6.25,6.25,0,0,0,89,16.48a4.26,4.26,0,0,0-1.64,2.17,18.83,18.83,0,0,0-.4,4.86v1.67l.07,3.47c0,2,.06,3.2.08,3.55a5.25,5.25,0,0,0,.3,1.82.85.85,0,0,0,.3.38,1.55,1.55,0,0,0,.59.27c.12,0,1,0,2.77.07v1.4c-2.44-.14-4.4-.2-5.88-.2-1.2,0-3.37.06-6.53.2v-1.4l2.37,0a1.92,1.92,0,0,0,.83-.19,1.25,1.25,0,0,0,.44-.41,4.4,4.4,0,0,0,.32-1.77q0-.33.15-7.17V23.24a16.16,16.16,0,0,0-.5-4.71,4.59,4.59,0,0,0-1.75-2.37,5,5,0,0,0-3-.88,6.58,6.58,0,0,0-2.84.63,5.58,5.58,0,0,0-2.06,1.59,4.26,4.26,0,0,0-.87,2,28.89,28.89,0,0,0-.25,4.14v1.52q.15,6.5.15,7A5.25,5.25,0,0,0,72,34a.9.9,0,0,0,.29.38,1.62,1.62,0,0,0,.63.27c.1,0,1,0,2.74.07v1.4c-2.29-.14-4.24-.2-5.85-.2C68.37,35.94,66.22,36,63.33,36.14Z"/><path class="cls-1" d="M108.39,36.14v-1.4l2.36,0a1.85,1.85,0,0,0,.81-.19,1.25,1.25,0,0,0,.44-.41,4.65,4.65,0,0,0,.35-1.77q0-.33.15-7.16v-3c0-1.33,0-2.76-.08-4.29a6,6,0,0,0-.23-1.75,1,1,0,0,0-.56-.41,18.9,18.9,0,0,0-3.24-.12V14.23a25.89,25.89,0,0,0,7.33-1.82,2.09,2.09,0,0,1,.67-.25.32.32,0,0,1,.27.13.55.55,0,0,1,.1.37,3,3,0,0,1,0,.4c-.06.8-.11,2-.14,3.56l3.27-3a6.18,6.18,0,0,1,.77-.62,6.6,6.6,0,0,1,1.65-.6,9.1,9.1,0,0,1,2.24-.27,7.89,7.89,0,0,1,4.27,1.17,7.39,7.39,0,0,1,2.87,3.46l2.74-2.54a10.23,10.23,0,0,1,1.28-1.05,7.6,7.6,0,0,1,1.84-.69,8.91,8.91,0,0,1,2.37-.33,7.51,7.51,0,0,1,4.76,1.51,6.79,6.79,0,0,1,2.47,3.43,26.82,26.82,0,0,1,.34,5.49v2.6l.08,3.46c.05,2,.07,3.2.07,3.55a5.78,5.78,0,0,0,.3,1.82,1.05,1.05,0,0,0,.31.39,2.06,2.06,0,0,0,.61.26c.1,0,1,0,2.75.07v1.4q-3.15-.15-4.29-.15t-4.41.15l.22-6.88.08-2.69V24.42a24.79,24.79,0,0,0-.43-5.72A4.37,4.37,0,0,0,141,16.22a5.35,5.35,0,0,0-3.15-.94,6.25,6.25,0,0,0-3.74,1.2,4.26,4.26,0,0,0-1.64,2.17,18.83,18.83,0,0,0-.4,4.86v1.67l.07,3.47c0,2,.06,3.2.08,3.55a5.25,5.25,0,0,0,.3,1.82.9.9,0,0,0,.29.38,1.68,1.68,0,0,0,.6.27c.12,0,1,0,2.77.07v1.4c-2.44-.14-4.4-.2-5.88-.2-1.2,0-3.38.06-6.53.2v-1.4l2.37,0a1.92,1.92,0,0,0,.83-.19,1.25,1.25,0,0,0,.44-.41,4.4,4.4,0,0,0,.32-1.77q0-.33.15-7.17V23.24a16.16,16.16,0,0,0-.5-4.71,4.64,4.64,0,0,0-1.75-2.37,5,5,0,0,0-3-.88,6.57,6.57,0,0,0-2.83.63,5.58,5.58,0,0,0-2.06,1.59,4.28,4.28,0,0,0-.88,2,30.59,30.59,0,0,0-.24,4.14v1.52c.1,4.33.14,6.67.14,7A5.78,5.78,0,0,0,117,34a1,1,0,0,0,.3.38,1.62,1.62,0,0,0,.63.27c.1,0,1,0,2.74.07v1.4c-2.3-.14-4.24-.2-5.85-.2C113.43,35.94,111.28,36,108.39,36.14Z"/><path class="cls-1" d="M154.09,24.67A12.11,12.11,0,0,1,166.75,12a11.28,11.28,0,0,1,11.82,11.79,13.35,13.35,0,0,1-1.7,6.65,12.06,12.06,0,0,1-4.78,4.72,13.83,13.83,0,0,1-6.81,1.71,11.1,11.1,0,0,1-4.89-1,9.79,9.79,0,0,1-3.26-2.44,11.63,11.63,0,0,1-1.89-3A14.87,14.87,0,0,1,154.09,24.67Zm4.71-1.84a20,20,0,0,0,1,6.23,9,9,0,0,0,2.95,4.62,6.85,6.85,0,0,0,4.2,1.46,6.06,6.06,0,0,0,4.83-2.29q2-2.3,1.95-7.06A18.34,18.34,0,0,0,172.6,19a8.42,8.42,0,0,0-3-4.06,7,7,0,0,0-4-1.18,6.24,6.24,0,0,0-5,2.22C159.44,17.4,158.8,19.71,158.8,22.83Z"/><path class="cls-1" d="M181,36.14v-1.4l2.37,0a1.85,1.85,0,0,0,.81-.19,1.21,1.21,0,0,0,.43-.41,4.46,4.46,0,0,0,.35-1.77q0-.33.15-7.17v-3c0-1.33,0-2.76-.07-4.29a5.45,5.45,0,0,0-.24-1.74,1,1,0,0,0-.56-.42,18.32,18.32,0,0,0-3.24-.11V14.23a25.89,25.89,0,0,0,7.33-1.82,2.09,2.09,0,0,1,.67-.25.3.3,0,0,1,.27.13.55.55,0,0,1,.1.37c0,.12,0,.25,0,.4-.05.6-.1,1.86-.15,3.79l4.64-4a11.48,11.48,0,0,1,3.87-.74,9.12,9.12,0,0,1,3.83.82A6.72,6.72,0,0,1,204.22,15a7.11,7.11,0,0,1,1.21,3.14,59.85,59.85,0,0,1,.18,6.27v4.41a37.76,37.76,0,0,0,.17,4.42,2,2,0,0,0,.39,1,1.28,1.28,0,0,0,.81.36l2.66.07v1.4c-1.62-.12-3-.18-4.06-.18s-2.47.06-4.63.18q.35-6.16.35-7.78V24.17A27.06,27.06,0,0,0,201,19a4.57,4.57,0,0,0-1.93-2.69,6.27,6.27,0,0,0-3.62-1,6.75,6.75,0,0,0-3.42.88,5.75,5.75,0,0,0-2.21,2.05,8.39,8.39,0,0,0-.66,3.91v3q.15,6.5.15,7a5.25,5.25,0,0,0,.3,1.82.85.85,0,0,0,.3.38,1.57,1.57,0,0,0,.62.27c.1,0,1,0,2.74.07v1.4c-2-.12-3.86-.18-5.5-.18Q185.69,36,181,36.14Z"/><path class="cls-1" d="M224.35,34.92a59,59,0,0,0,.47-7.75h1.7a18.43,18.43,0,0,0,.41,4.29,3.74,3.74,0,0,0,1.38,1.41,11.27,11.27,0,0,0,2.94,1.34,11.78,11.78,0,0,0,3.57.58,9.42,9.42,0,0,0,4.63-1.16,7.26,7.26,0,0,0,3.09-3,8.58,8.58,0,0,0,1-4,7.57,7.57,0,0,0-.48-2.84,4.44,4.44,0,0,0-1.49-1.94,6.12,6.12,0,0,0-2.46-1c-.62-.1-1.85-.27-3.69-.5s-3.42-.49-4.71-.77a10.52,10.52,0,0,1-3.81-1.87,7.74,7.74,0,0,1-2-2.82,9.39,9.39,0,0,1-.76-3.76,10.75,10.75,0,0,1,1.54-5.54,10.19,10.19,0,0,1,4.53-4A14.76,14.76,0,0,1,236.71,0,22.29,22.29,0,0,1,246,2.22a25.71,25.71,0,0,0-.5,2.93c-.1.9-.18,2.24-.23,4h-1.69A27.39,27.39,0,0,0,243.36,5a6.25,6.25,0,0,0-1.69-1.62,10.82,10.82,0,0,0-5.36-1.45,7.71,7.71,0,0,0-5.77,2.21,7.8,7.8,0,0,0-2.15,5.71,5.83,5.83,0,0,0,.77,3.28,5.26,5.26,0,0,0,2.76,1.85,25.53,25.53,0,0,0,4.49.89c2.08.27,4,.57,5.61.88a9.68,9.68,0,0,1,3.46,1.66,7.43,7.43,0,0,1,1.85,2.51,8.64,8.64,0,0,1,.72,3.65,11.25,11.25,0,0,1-4.11,8.64,15.33,15.33,0,0,1-10.64,3.69A20.33,20.33,0,0,1,224.35,34.92Z"/><path class="cls-1" d="M271.53,32.27l-.8,1.8a23.54,23.54,0,0,1-2.52,1.42,15,15,0,0,1-2.68.88,13.58,13.58,0,0,1-3.18.37,12.75,12.75,0,0,1-6-1.38,9.64,9.64,0,0,1-4.13-4.09,13.21,13.21,0,0,1-1.48-6.4,15.81,15.81,0,0,1,.79-5.17,9.6,9.6,0,0,1,1.78-3.4,13,13,0,0,1,2.24-1.83,15.77,15.77,0,0,1,3-1.64,11.07,11.07,0,0,1,4.26-.82,10.14,10.14,0,0,1,5,1.27,7.8,7.8,0,0,1,3.31,3.47,11.46,11.46,0,0,1,1,5,16.33,16.33,0,0,1-.1,1.69,28.06,28.06,0,0,1-3.22.45c-1.79.13-3.59.2-5.39.2h-8a12.63,12.63,0,0,0,1.23,5.77,7.49,7.49,0,0,0,3.27,3.25,9.49,9.49,0,0,0,4.32,1,9.61,9.61,0,0,0,3-.49,19.75,19.75,0,0,0,3.73-1.78Zm-16-10.21c.47.05,1.35.1,2.65.15,2.48.08,4.19.12,5.12.12,2.21,0,3.67,0,4.37-.12,0-.4,0-.71,0-.92q0-3.93-1.6-5.77a5.37,5.37,0,0,0-4.27-1.84,5.66,5.66,0,0,0-4.54,2Q255.57,17.71,255.55,22.06Z"/><path class="cls-1" d="M274.67,36.14v-1.4l2.36,0a1.85,1.85,0,0,0,.81-.19,1.17,1.17,0,0,0,.44-.41,4.65,4.65,0,0,0,.35-1.77q0-.33.15-7.17v-3c0-1.33,0-2.76-.08-4.29a5.58,5.58,0,0,0-.23-1.74,1,1,0,0,0-.56-.42,18.32,18.32,0,0,0-3.24-.11V14.23A25.89,25.89,0,0,0,282,12.41a2.09,2.09,0,0,1,.67-.25.32.32,0,0,1,.27.13.55.55,0,0,1,.1.37c0,.12,0,.25,0,.4,0,.6-.1,1.86-.15,3.79l4.64-4a11.44,11.44,0,0,1,3.87-.74,9.12,9.12,0,0,1,3.83.82A6.72,6.72,0,0,1,297.93,15a7.11,7.11,0,0,1,1.21,3.14,61.17,61.17,0,0,1,.17,6.27v4.41a35,35,0,0,0,.18,4.42,2,2,0,0,0,.39,1,1.28,1.28,0,0,0,.81.36l2.66.07v1.4c-1.63-.12-3-.18-4.06-.18s-2.48.06-4.64.18c.24-4.11.35-6.7.35-7.78V24.17a27.06,27.06,0,0,0-.3-5.13,4.51,4.51,0,0,0-1.92-2.69,6.29,6.29,0,0,0-3.62-1,6.75,6.75,0,0,0-3.42.88,5.75,5.75,0,0,0-2.21,2.05,8.39,8.39,0,0,0-.66,3.91v3q.15,6.5.15,7a5.55,5.55,0,0,0,.29,1.82,1,1,0,0,0,.3.38,1.62,1.62,0,0,0,.63.27c.1,0,1,0,2.74.07v1.4c-2-.12-3.86-.18-5.5-.18Q279.4,36,274.67,36.14Z"/><path class="cls-1" d="M306,28.61h1.5a20.09,20.09,0,0,0,.15,2.29,7.92,7.92,0,0,0,.42,1.66,3.42,3.42,0,0,0,.92,1.37,4.62,4.62,0,0,0,1.36.87,5.79,5.79,0,0,0,1.5.42,21.26,21.26,0,0,0,2.3.09A6.34,6.34,0,0,0,318.32,34,4.53,4.53,0,0,0,320,30.28a3.32,3.32,0,0,0-.51-1.84A3.36,3.36,0,0,0,318,27.19,25.28,25.28,0,0,0,313.84,26q-3.16-.72-4.08-1.05a6.86,6.86,0,0,1-2.22-1.27,5.29,5.29,0,0,1-1.31-1.89,6.44,6.44,0,0,1-.49-2.5,6.69,6.69,0,0,1,1-3.62A7.3,7.3,0,0,1,310,13a11.3,11.3,0,0,1,4.84-1,18,18,0,0,1,3.63.44,14.37,14.37,0,0,1,3.37,1.08c-.12,1.85-.2,3.73-.25,5.64H320.2a14.11,14.11,0,0,0-.29-2.4,4.29,4.29,0,0,0-.43-1,3.86,3.86,0,0,0-1-1,7.14,7.14,0,0,0-1.73-.91,7.62,7.62,0,0,0-2.61-.4,4.85,4.85,0,0,0-3.52,1.3,4.11,4.11,0,0,0-1.34,3,3.38,3.38,0,0,0,.39,1.67,3.29,3.29,0,0,0,1,1.13,6.85,6.85,0,0,0,1.82.79l4.14,1A26.2,26.2,0,0,1,321,23.75a4.48,4.48,0,0,1,1.91,1.78,5.61,5.61,0,0,1,.72,2.91,7.66,7.66,0,0,1-2.78,5.87,10.67,10.67,0,0,1-7.43,2.5,33.8,33.8,0,0,1-5.71-.65,9.25,9.25,0,0,1-2.12-.52.28.28,0,0,1-.1-.25,2.37,2.37,0,0,1,.05-.42,16.08,16.08,0,0,0,.3-2.1Q305.95,31.85,306,28.61Z"/><path class="cls-1" d="M347.31,32.27l-.79,1.8A23.54,23.54,0,0,1,344,35.49a15,15,0,0,1-2.68.88,13.65,13.65,0,0,1-3.18.37,12.75,12.75,0,0,1-5.95-1.38,9.72,9.72,0,0,1-4.14-4.09,13.32,13.32,0,0,1-1.47-6.4,16.08,16.08,0,0,1,.78-5.17,9.76,9.76,0,0,1,1.79-3.4,13,13,0,0,1,2.24-1.83,16,16,0,0,1,3-1.64,11.16,11.16,0,0,1,4.27-.82,10.14,10.14,0,0,1,5,1.27A7.8,7.8,0,0,1,347,16.75a11.46,11.46,0,0,1,1,5,16.33,16.33,0,0,1-.1,1.69,28.36,28.36,0,0,1-3.22.45c-1.79.13-3.59.2-5.39.2h-8a12.51,12.51,0,0,0,1.23,5.77,7.49,7.49,0,0,0,3.27,3.25,9.46,9.46,0,0,0,4.32,1,9.7,9.7,0,0,0,3-.49,20,20,0,0,0,3.73-1.78Zm-16-10.21c.47.05,1.35.1,2.65.15,2.48.08,4.18.12,5.12.12,2.21,0,3.67,0,4.37-.12,0-.4,0-.71,0-.92q0-3.93-1.6-5.77a5.39,5.39,0,0,0-4.27-1.84,5.66,5.66,0,0,0-4.54,2Q331.37,17.71,331.34,22.06Z"/><path class="cls-1" d="M387.85,26.56a9.6,9.6,0,0,1-3.84,7.9q-3.84,3-10.42,3a27.15,27.15,0,0,1-6.64-.72,33.34,33.34,0,0,1-5.3-1.82V27.07h.87A17.94,17.94,0,0,0,368,30.3a16.75,16.75,0,0,0,5.84,1.12,17,17,0,0,0,1.89-.13,7,7,0,0,0,1.91-.44,4.86,4.86,0,0,0,1.5-1,2.4,2.4,0,0,0,.58-1.76,2.46,2.46,0,0,0-.85-1.87,5.84,5.84,0,0,0-2.5-1.2c-1.16-.3-2.37-.57-3.66-.83a28.33,28.33,0,0,1-3.61-1,11.32,11.32,0,0,1-5.57-3.66,9.42,9.42,0,0,1-1.69-5.73,9,9,0,0,1,3.83-7.5,16,16,0,0,1,9.87-2.9,28.58,28.58,0,0,1,6,.63,26.78,26.78,0,0,1,5.12,1.58V13.2h-.85a16,16,0,0,0-4.53-2.66,14.81,14.81,0,0,0-5.49-1.07,14.5,14.5,0,0,0-2,.14,7.25,7.25,0,0,0-1.88.55,3.66,3.66,0,0,0-1.38,1A2.31,2.31,0,0,0,370,12.7a2.33,2.33,0,0,0,.92,2,9.81,9.81,0,0,0,3.5,1.27l3.24.73a34.09,34.09,0,0,1,3.35,1A11.1,11.1,0,0,1,386.17,21,8.68,8.68,0,0,1,387.85,26.56Z"/><path class="cls-1" d="M403,28.13l5.28-16h7.62L403.08,46H395l3.68-9.29-9-24.61h7.78Z"/><path class="cls-1" d="M439.87,29a7.32,7.32,0,0,1-3.21,6.19q-3.21,2.35-8.79,2.35a23.61,23.61,0,0,1-5.6-.61,20.78,20.78,0,0,1-4-1.37V29.06h.68c.37.28.8.59,1.28.92a12.83,12.83,0,0,0,2.07,1.07,15.77,15.77,0,0,0,2.62.87,13,13,0,0,0,3.13.36,7.76,7.76,0,0,0,3.23-.51,1.66,1.66,0,0,0,1.05-1.54,1.46,1.46,0,0,0-.62-1.31,7.47,7.47,0,0,0-2.35-.79c-.55-.13-1.29-.27-2.23-.43a21.84,21.84,0,0,1-2.56-.56,9,9,0,0,1-4.68-2.75,7.13,7.13,0,0,1-1.52-4.65,7.2,7.2,0,0,1,3.16-5.95c2.11-1.58,5-2.38,8.64-2.38a21.33,21.33,0,0,1,5,.57,18.58,18.58,0,0,1,3.71,1.2v6.27h-.64a14.52,14.52,0,0,0-3.75-2,12.47,12.47,0,0,0-4.27-.77,7.67,7.67,0,0,0-3,.53c-.82.36-1.22.86-1.22,1.51a1.64,1.64,0,0,0,.55,1.34,7.2,7.2,0,0,0,2.62.93q1.13.24,2.43.48c.88.15,1.75.35,2.63.58a8.13,8.13,0,0,1,4.32,2.57A6.85,6.85,0,0,1,439.87,29Z"/><path class="cls-1" d="M459.31,36.68a20.54,20.54,0,0,1-2.53.52,24.83,24.83,0,0,1-3.27.19c-2.88,0-5-.63-6.43-1.88S445,32.12,445,29.08V17.49h-3.05V12.1H445V5h7.43V12.1h6.91v5.39H452.4v8.8c0,.87,0,1.63,0,2.28a4.83,4.83,0,0,0,.33,1.75,2.41,2.41,0,0,0,1,1.22,4,4,0,0,0,2.13.46,5.68,5.68,0,0,0,1.5-.27,6.1,6.1,0,0,0,1.31-.48h.61Z"/><path class="cls-1" d="M486.25,26h-17a5.87,5.87,0,0,0,2.07,4.46A8.74,8.74,0,0,0,477,32a12,12,0,0,0,4.55-.91A14,14,0,0,0,485,29.13h.83v6.38a27,27,0,0,1-4.74,1.57,23.32,23.32,0,0,1-4.92.48q-6.95,0-10.66-3.35t-3.7-9.57q0-6.13,3.51-9.72t9.62-3.59q5.64,0,8.48,3.05t2.84,8.81Zm-7.37-4.66a5.83,5.83,0,0,0-1.15-3.76,4.26,4.26,0,0,0-3.4-1.25,5.16,5.16,0,0,0-3.52,1.19,5.25,5.25,0,0,0-1.54,3.82Z"/><path class="cls-1" d="M513.8,19.32V36.9h-7.43V24.51c0-1.21,0-2.23-.08-3.08a6.18,6.18,0,0,0-.45-2.07,2.3,2.3,0,0,0-1.13-1.15,4.81,4.81,0,0,0-2.11-.37,5,5,0,0,0-2.12.48,15.2,15.2,0,0,0-1.85,1V36.9H491.2V12.1h7.43v2.74a20.09,20.09,0,0,1,3.66-2.52,8.33,8.33,0,0,1,3.87-.91,7.45,7.45,0,0,1,4,1.1,7.35,7.35,0,0,1,2.73,3.21,23.42,23.42,0,0,1,4.31-3.16,8.61,8.61,0,0,1,4.12-1.15A6.89,6.89,0,0,1,527,13.82Q529,16.24,529,20.76V36.9h-7.43V24.51c0-1.22,0-2.25-.07-3.09a5.72,5.72,0,0,0-.45-2.06,2.19,2.19,0,0,0-1.11-1.15,4.93,4.93,0,0,0-2.14-.37,5.18,5.18,0,0,0-1.81.34A13.66,13.66,0,0,0,513.8,19.32Z"/><path class="cls-1" d="M555.66,29a7.32,7.32,0,0,1-3.21,6.19q-3.21,2.35-8.79,2.35a23.55,23.55,0,0,1-5.6-.61,20.78,20.78,0,0,1-4-1.37V29.06h.68c.37.28.8.59,1.28.92a12.83,12.83,0,0,0,2.07,1.07,15.77,15.77,0,0,0,2.62.87,13,13,0,0,0,3.12.36,7.73,7.73,0,0,0,3.23-.51,1.66,1.66,0,0,0,1.05-1.54,1.45,1.45,0,0,0-.61-1.31,7.47,7.47,0,0,0-2.35-.79c-.55-.13-1.29-.27-2.23-.43a22,22,0,0,1-2.57-.56,9,9,0,0,1-4.67-2.75,7.13,7.13,0,0,1-1.52-4.65,7.17,7.17,0,0,1,3.16-5.95c2.11-1.58,5-2.38,8.63-2.38a21.21,21.21,0,0,1,5,.57,18.49,18.49,0,0,1,3.72,1.2v6.27H554a14.42,14.42,0,0,0-3.76-2,12.42,12.42,0,0,0-4.27-.77,7.62,7.62,0,0,0-3,.53c-.82.36-1.23.86-1.23,1.51a1.64,1.64,0,0,0,.56,1.34,7.2,7.2,0,0,0,2.61.93c.76.16,1.57.32,2.44.48s1.75.35,2.63.58a8.17,8.17,0,0,1,4.32,2.57A6.85,6.85,0,0,1,555.66,29Z"/></svg>