<svg id="Card" xmlns="http://www.w3.org/2000/svg" viewBox="0 0 432 273.98"><defs><style>.cls-1{fill:#fff;}.cls-2{font-size:29.08px;fill:#231f20;font-family:Palatino-Roman, Palatino;}.cls-3{font-family:LucidaGrande-Bold, Lucida Grande;font-weight:700;}.cls-4{fill:#f58224;}.cls-5{fill:#f4762e;}</style></defs><rect class="cls-1" width="432" height="273.98"/><text class="cls-2" transform="translate(55.39 186.69) scale(0.95 1)"><tspan xml:space="preserve">Common Sense  </tspan><tspan class="cls-3" x="214.84" y="0">Systems</tspan></text><path class="cls-4" d="M300.51,84.79a174.28,174.28,0,0,0-21.09,26.3C272,104,239.83,74.71,223.16,83.52c-15.09,8,2.28,45.14,2.28,45.14s13.22,28,25.27,43.12l0,.06.52.67.52-1c3.76-6.48,45-77.19,55.87-77.24,14.29,0-7.09,53.8-7.09,53.8l.59.41s11.68-20.14,17-33.6c1.61-4.08,6.9-16.72,7.62-27.29C326.62,75.27,321,64,300.51,84.79Zm-49.22,85.93c-4-9.86-22.06-54.64-15.32-66.15,4.72-8.06,30.87,6.83,39.8,12.25A241,241,0,0,0,251.29,170.72Z"/><path class="cls-5" d="M324.94,78.66c-.05-.16-.11-.32-.17-.48a9.9,9.9,0,0,0-1.17-2.29c-.08-.12-.17-.24-.26-.35l-.14-.17-.15-.16a5.8,5.8,0,0,0-4.48-1.95,9.38,9.38,0,0,0-2.11.27,5.25,5.25,0,0,0-.65.18A22.38,22.38,0,0,0,309.4,77c-.4.28-.8.58-1.22.89a74.27,74.27,0,0,0-7.67,6.86,174.28,174.28,0,0,0-21.09,26.3c-6.47-6.19-31.72-29.2-49.09-29.2a14.88,14.88,0,0,0-7.12,1.63c-15.14,8,2.23,45.14,2.23,45.14s13.22,28,25.27,43.12l0,.06.52.67.52-1,.09-.16.11-.19h0c.06-.11.14-.23.23-.37s.2-.36.32-.57.22-.39.36-.61l1.37-2.34c8.35-14.2,35.16-58.85,48.42-70.29a17,17,0,0,1,2.6-1.88l.33-.18a6,6,0,0,1,1.23-.5l.28-.06.26,0h.25A4,4,0,0,1,311,95.87a5.25,5.25,0,0,1,.33.49,9,9,0,0,1,1.07,3.33c0,.26.07.53.09.78,1.37,14.12-11.92,47.64-11.92,47.64l.58.42s11.68-20.14,17-33.6c1.61-4.09,6.9-16.73,7.62-27.29A24.51,24.51,0,0,0,324.94,78.66ZM226.77,128a115.66,115.66,0,0,1-6.7-19.3c-2.1-8.82-3.15-20.09,3.77-23.76a13.75,13.75,0,0,1,6.49-1.47c7.11,0,16.48,4,27.83,12a184.18,184.18,0,0,1,20.29,16.78l.14.14c-.67,1-1.33,2.08-2,3.12l-.06,0c-7.35-4.46-25.48-14.82-35.26-14.82-3.15,0-5.35,1-6.55,3.12-4.44,7.56-.23,28,12.48,60.66C236.84,149.21,226.89,128.21,226.77,128Zm24.52,42.75c-4-9.86-22.06-54.64-15.32-66.15,1-1.66,2.84-2.33,5.28-2.33,9.46,0,27.39,10.29,34.52,14.58A241.17,241.17,0,0,0,251.29,170.72Zm73-83.78v.59c-.66,9.57-5.18,21-7.13,25.84l-.38.95c-1.82,4.68-4.44,10.14-7.06,15.28l-.57,1.12h0l-1,1.95-1.32,2.5h0c.12-.34.23-.69.35-1,.82-2.5,1.67-5.17,2.46-7.9.12-.41.24-.83.35-1.23s.25-.88.37-1.31c.31-1.09.59-2.15.85-3.18.14-.5.26-1,.38-1.49.35-1.4.66-2.74.93-4,.12-.52.22-1,.32-1.56.24-1.24.45-2.44.63-3.57.07-.44.13-.89.19-1.31a43.24,43.24,0,0,0,.43-6.43,8.62,8.62,0,0,0-.05-1.15,2.64,2.64,0,0,0,0-.56,15.11,15.11,0,0,0-.31-2,9.3,9.3,0,0,0-1.19-3.12,6.31,6.31,0,0,0-.66-.88,5.45,5.45,0,0,0-4.22-1.65,3.84,3.84,0,0,0-.83.09l-.19,0-.23.06-.37.12-.14,0-.29.11c-4,1.72-11.8,9-29.76,36.41-5.27,8-10.36,16.2-14.61,23.15l-.12.2-3.28,5.46-.15.25-.85,1.4-.06.12-.87,1.45h0l.39-1c.23-.61.46-1.24.74-1.89,0-.06.06-.14.08-.2.38-1,.74-2,1.21-3.12.11-.29.22-.58.35-.89l.42-1,.49-1.21.51-1.24c.56-1.33,1.14-2.69,1.76-4.1l.51-1.17a240.62,240.62,0,0,1,12.14-23.92c.5-.86,1-1.72,1.53-2.58.32-.53.64-1.06,1-1.6,1.2-2,2.41-3.86,3.62-5.68a171.75,171.75,0,0,1,20.9-26.06c9-9.17,14.25-11.1,17-11.1A4.38,4.38,0,0,1,322,76.38a6.31,6.31,0,0,1,.89,1.33,10.6,10.6,0,0,1,.52,1.2c.06.17.12.35.17.53h0c.12.36.21.78.3,1.14h0a5.31,5.31,0,0,1,.12.6c0,.2.08.42.11.64A25.76,25.76,0,0,1,324.34,86.94Z"/></svg>