<svg id="Card" xmlns="http://www.w3.org/2000/svg" viewBox="0 0 432 273.98"><defs><style>.cls-1{fill:#fff;}.cls-2{font-size:29.08px;font-family:Palatino-Roman, Palatino;}.cls-2,.cls-5{fill:#231f20;}.cls-3{fill:#f58224;}.cls-4{fill:#f4762e;}.cls-5{font-size:18px;font-family:AndaleMono, Andale Mono;}</style></defs><rect class="cls-1" width="432" height="273.98"/><text class="cls-2" transform="translate(205.86 88.92) scale(0.95 1)">Common<tspan x="0" y="34.9">Sense</tspan><tspan x="0" y="69.8">Systems, Inc.</tspan></text><path class="cls-3" d="M151.46,80.42a173.17,173.17,0,0,0-21.09,26.3C123,99.6,90.78,70.33,74.11,79.15c-15.1,8,2.28,45.13,2.28,45.13s13.22,28,25.26,43.13a.12.12,0,0,1,0,.05l.52.67.52-1c3.76-6.48,45-77.19,55.87-77.25,14.29,0-7.09,53.8-7.09,53.8l.59.41s11.69-20.14,17-33.59c1.6-4.09,6.89-16.73,7.61-27.29C177.57,70.89,171.92,59.65,151.46,80.42Zm-49.23,85.93c-4-9.87-22-54.64-15.32-66.15,4.72-8.06,30.87,6.83,39.81,12.24A240.62,240.62,0,0,0,102.23,166.35Z"/><path class="cls-4" d="M175.88,74.28c0-.16-.11-.32-.17-.48a9.9,9.9,0,0,0-1.17-2.29c-.08-.12-.17-.24-.26-.35l-.13-.17-.15-.16a5.83,5.83,0,0,0-4.49-2,9.38,9.38,0,0,0-2.11.27l-.65.18a22.2,22.2,0,0,0-6.4,3.33c-.41.28-.81.58-1.22.9a71.06,71.06,0,0,0-7.67,6.86,173.17,173.17,0,0,0-21.09,26.3c-6.48-6.2-31.72-29.21-49.1-29.21a15,15,0,0,0-7.12,1.64c-15.14,8,2.24,45.13,2.24,45.13s13.22,28,25.26,43.13l0,.05.52.67.52-1,.09-.17.12-.18h0c.06-.11.13-.24.22-.38l.32-.57c.13-.21.23-.39.36-.61.37-.64.83-1.41,1.37-2.33,8.35-14.21,35.16-58.86,48.42-70.29a17,17,0,0,1,2.6-1.88l.33-.18a5.48,5.48,0,0,1,1.23-.5,1.4,1.4,0,0,1,.28-.06l.26,0h.25A4,4,0,0,1,162,91.5a4.2,4.2,0,0,1,.33.49,9,9,0,0,1,1.07,3.32c0,.26.07.54.1.78,1.36,14.12-11.93,47.65-11.93,47.65l.58.41s11.69-20.14,17-33.6c1.6-4.08,6.89-16.73,7.61-27.29A24.51,24.51,0,0,0,175.88,74.28ZM77.72,123.59A115.07,115.07,0,0,1,71,104.29c-2.09-8.82-3.15-20.09,3.78-23.76a13.67,13.67,0,0,1,6.48-1.46c7.11,0,16.48,4,27.84,12a185,185,0,0,1,20.28,16.78l.15.14c-.67,1-1.34,2.08-2,3.12l-.07,0c-7.34-4.45-25.48-14.81-35.26-14.81-3.15,0-5.35,1-6.54,3.11-4.45,7.56-.23,28,12.47,60.66C87.78,144.84,77.83,123.83,77.72,123.59Zm24.51,42.76c-4-9.87-22-54.64-15.32-66.15,1-1.66,2.84-2.34,5.29-2.34,9.45,0,27.39,10.29,34.51,14.59A241,241,0,0,0,102.23,166.35Zm73.06-83.79v.59c-.67,9.58-5.19,21-7.14,25.84l-.38,1c-1.82,4.68-4.44,10.14-7.06,15.29l-.57,1.11h0c-.33.66-.67,1.31-1,1.95l-1.32,2.5h0c.12-.34.23-.69.35-1,.82-2.49,1.67-5.17,2.46-7.9.13-.41.24-.82.36-1.23s.25-.87.37-1.3c.3-1.1.58-2.16.85-3.19.13-.5.26-1,.37-1.48.35-1.41.66-2.75.94-4,.11-.52.21-1,.31-1.56.24-1.24.46-2.43.63-3.56.07-.45.13-.89.19-1.32a41.94,41.94,0,0,0,.43-6.43,8.7,8.7,0,0,0,0-1.15,2.5,2.5,0,0,0,0-.55,16.79,16.79,0,0,0-.3-2,9.84,9.84,0,0,0-1.19-3.12,6.38,6.38,0,0,0-.67-.88,5.42,5.42,0,0,0-4.21-1.64,4.78,4.78,0,0,0-.84.08l-.18,0-.24.06-.36.12-.15,0-.29.12c-4,1.71-11.79,9-29.75,36.4-5.27,8-10.37,16.2-14.62,23.16a1.18,1.18,0,0,0-.11.19l-3.29,5.46-.15.25-.84,1.4-.07.12-.87,1.46h0l.39-1c.23-.61.46-1.24.74-1.88a.76.76,0,0,1,.08-.21c.38-1,.74-2,1.21-3.12.12-.28.23-.58.35-.89l.42-1,.49-1.22.51-1.24c.56-1.32,1.15-2.69,1.76-4.1l.52-1.17a238.42,238.42,0,0,1,12.13-23.92q.75-1.29,1.53-2.58l1-1.6c1.2-2,2.41-3.86,3.62-5.68a172.74,172.74,0,0,1,20.9-26.06c9-9.17,14.26-11.1,17-11.1A4.37,4.37,0,0,1,173,72a6.37,6.37,0,0,1,.89,1.34,8.4,8.4,0,0,1,.52,1.19c.06.17.12.35.17.53h0c.12.37.22.78.31,1.14h0c0,.19.08.4.11.6s.08.42.11.64A25.77,25.77,0,0,1,175.29,82.56Z"/><text class="cls-5" transform="translate(84.13 198.6)">https://common-sense.com</text></svg>